# xmcd
# 
# Track frame offsets:
#     150
#     20357
#     39935
#     57447
#     73302
#     89192
#     106795
#     123077
#     148270
#     165490
#     184297
#     197725
#     214037
#     232190
#     247857
#     265335
#     282440
# 
# Disc length: 3970
# 
# Revision: 10
# Processed by: cddbd v1.5.2PL0 Copyright (c) Steve Scherf et al.
# Submitted via: BonkEnc v1.0.8
# 
DISCID=010f8011
DTITLE=Various Artist - Totally Country Vol.1
DYEAR=2002
DGENRE=Country
TTITLE0=Brooks and Dunn - Only in America
TTITLE1=Montgomery Gentry - She Couldn't Change Me
TTITLE2=Lonestar - With Me
TTITLE3=Dixie Chicks - Without You
TTITLE4=Trick Pony - On A Night Like This
TTITLE5=Kenny Chesney - I Lost It
TTITLE6=Tammy Cochran - Angels In Waiting
TTITLE7=Sara Evans - Born To Fly
TTITLE8=Blake Shelton - Austin
TTITLE9=Billy Gilman - One Voice
TTITLE10=Keith Urban - Where The Blacktop Ends
TTITLE11=Diamond Rio - One More Day
TTITLE12=Travis Tritt - It's A Great Day To Be Alive
TTITLE13=Dwight Yoakam - I Want You To Want Me
TTITLE14=John Michael Montgomery - The Little Girl
TTITLE15=Kenny Rogers - Buy Me A Rose
TTITLE16=Martina McBride - There You Are
EXTD=
EXTT0=
EXTT1=
EXTT2=
EXTT3=
EXTT4=
EXTT5=
EXTT6=
EXTT7=
EXTT8=
EXTT9=
EXTT10=
EXTT11=
EXTT12=
EXTT13=
EXTT14=
EXTT15=
EXTT16=
PLAYORDER=
